<svg xmlns="http://www.w3.org/2000/svg" xmlns:xlink="http://www.w3.org/1999/xlink" width="1175" zoomAndPan="magnify" viewBox="0 0 881.25 434.250001" height="579" preserveAspectRatio="xMidYMid meet" version="1.0"><defs><clipPath id="1285dd7c66"><path d="M 0.386719 0 L 880.117188 0 L 880.117188 433.5 L 0.386719 433.5 Z M 0.386719 0 " clip-rule="nonzero"/></clipPath><clipPath id="11e0b67d14"><path d="M 13.625 17.171875 L 256.203125 17.171875 L 256.203125 259.753906 L 13.625 259.753906 Z M 13.625 17.171875 " clip-rule="nonzero"/></clipPath><clipPath id="b4b1309b7d"><path d="M 0.625 0.171875 L 243.203125 0.171875 L 243.203125 242.753906 L 0.625 242.753906 Z M 0.625 0.171875 " clip-rule="nonzero"/></clipPath><clipPath id="338813c68b"><rect x="0" width="244" y="0" height="243"/></clipPath><clipPath id="e7960cd041"><path d="M 219.078125 0 L 461.660156 0 L 461.660156 242.582031 L 219.078125 242.582031 Z M 219.078125 0 " clip-rule="nonzero"/></clipPath><clipPath id="b969e481e2"><path d="M 0.078125 0 L 242.660156 0 L 242.660156 242.582031 L 0.078125 242.582031 Z M 0.078125 0 " clip-rule="nonzero"/></clipPath><clipPath id="2023685d86"><rect x="0" width="243" y="0" height="243"/></clipPath><clipPath id="0644c03ea0"><path d="M 0.386719 190.171875 L 242.964844 190.171875 L 242.964844 432.753906 L 0.386719 432.753906 Z M 0.386719 190.171875 " clip-rule="nonzero"/></clipPath><clipPath id="ce19e394e4"><path d="M 0.386719 0.171875 L 242.964844 0.171875 L 242.964844 242.753906 L 0.386719 242.753906 Z M 0.386719 0.171875 " clip-rule="nonzero"/></clipPath><clipPath id="e9c4e8d8b7"><rect x="0" width="243" y="0" height="243"/></clipPath><clipPath id="83817fa628"><path d="M 186.214844 138.464844 L 428.796875 138.464844 L 428.796875 381.046875 L 186.214844 381.046875 Z M 186.214844 138.464844 " clip-rule="nonzero"/></clipPath><clipPath id="e147389f3a"><path d="M 0.214844 0.464844 L 242.796875 0.464844 L 242.796875 243.046875 L 0.214844 243.046875 Z M 0.214844 0.464844 " clip-rule="nonzero"/></clipPath><clipPath id="36da035b2f"><rect x="0" width="243" y="0" height="244"/></clipPath><clipPath id="08a865b81e"><path d="M 428.796875 17.171875 L 671.378906 17.171875 L 671.378906 259.753906 L 428.796875 259.753906 Z M 428.796875 17.171875 " clip-rule="nonzero"/></clipPath><clipPath id="533d5afbe4"><path d="M 0.796875 0.171875 L 243.378906 0.171875 L 243.378906 242.753906 L 0.796875 242.753906 Z M 0.796875 0.171875 " clip-rule="nonzero"/></clipPath><clipPath id="7c5c2f4472"><rect x="0" width="244" y="0" height="243"/></clipPath><clipPath id="1f75828243"><path d="M 374.121094 178.882812 L 616.703125 178.882812 L 616.703125 421.464844 L 374.121094 421.464844 Z M 374.121094 178.882812 " clip-rule="nonzero"/></clipPath><clipPath id="ffaf5bf8c0"><path d="M 0.121094 0.882812 L 242.703125 0.882812 L 242.703125 243.464844 L 0.121094 243.464844 Z M 0.121094 0.882812 " clip-rule="nonzero"/></clipPath><clipPath id="6f508d4bcf"><rect x="0" width="243" y="0" height="244"/></clipPath><clipPath id="b8fc3d2480"><path d="M 637.222656 0 L 879.804688 0 L 879.804688 242.582031 L 637.222656 242.582031 Z M 637.222656 0 " clip-rule="nonzero"/></clipPath><clipPath id="24deb03920"><path d="M 0.222656 0 L 242.804688 0 L 242.804688 242.582031 L 0.222656 242.582031 Z M 0.222656 0 " clip-rule="nonzero"/></clipPath><clipPath id="f15eda7057"><rect x="0" width="243" y="0" height="243"/></clipPath><clipPath id="ade52525ea"><path d="M 581.585938 150.109375 L 824.164062 150.109375 L 824.164062 392.6875 L 581.585938 392.6875 Z M 581.585938 150.109375 " clip-rule="nonzero"/></clipPath><clipPath id="f3f006b420"><path d="M 0.585938 0.109375 L 243.164062 0.109375 L 243.164062 242.6875 L 0.585938 242.6875 Z M 0.585938 0.109375 " clip-rule="nonzero"/></clipPath><clipPath id="34fcc6dc5c"><rect x="0" width="244" y="0" height="243"/></clipPath></defs><g clip-path="url(#1285dd7c66)"><path fill="#ffffff" d="M 0.386719 0 L 880.117188 0 L 880.117188 433.5 L 0.386719 433.5 Z M 0.386719 0 " fill-opacity="1" fill-rule="nonzero"/></g><g clip-path="url(#11e0b67d14)"><g transform="matrix(1, 0, 0, 1, 13, 17)"><g clip-path="url(#338813c68b)"><g clip-path="url(#b4b1309b7d)"><path fill="#2fc5f1" d="M 0.625 0.171875 L 243.203125 0.171875 L 243.203125 242.753906 L 0.625 242.753906 Z M 0.625 0.171875 " fill-opacity="1" fill-rule="nonzero"/></g></g></g><path stroke-linecap="butt" transform="matrix(0.748707, 0, 0, 0.748707, 13.623997, 17.17098)" fill="none" stroke-linejoin="miter" d="M 0.00133964 0.00119476 L 323.997467 0.00119476 L 323.997467 324.002539 L 0.00133964 324.002539 Z M 0.00133964 0.00119476 " stroke="#ffffff" stroke-width="8" stroke-opacity="1" stroke-miterlimit="4"/></g><g clip-path="url(#e7960cd041)"><g transform="matrix(1, 0, 0, 1, 219, -0.00000000000002495)"><g clip-path="url(#2023685d86)"><g clip-path="url(#b969e481e2)"><path fill="#2fc5f1" d="M 0.078125 0 L 242.660156 0 L 242.660156 242.582031 L 0.078125 242.582031 Z M 0.078125 0 " fill-opacity="1" fill-rule="nonzero"/></g></g></g><path stroke-linecap="butt" transform="matrix(0.748707, 0, 0, 0.748707, 219.079695, 0.00000998276)" fill="none" stroke-linejoin="miter" d="M -0.00209634 -0.0000133333 L 323.999248 -0.0000133333 L 323.999248 324.001331 L -0.00209634 324.001331 Z M -0.00209634 -0.0000133333 " stroke="#ffffff" stroke-width="8" stroke-opacity="1" stroke-miterlimit="4"/></g><g clip-path="url(#0644c03ea0)"><g transform="matrix(1, 0, 0, 1, 0.000000000000000056, 190)"><g clip-path="url(#e9c4e8d8b7)"><g clip-path="url(#ce19e394e4)"><path fill="#2fc5f1" d="M 0.386719 0.171875 L 242.964844 0.171875 L 242.964844 242.753906 L 0.386719 242.753906 Z M 0.386719 0.171875 " fill-opacity="1" fill-rule="nonzero"/></g></g></g><path stroke-linecap="butt" transform="matrix(0.748707, 0, 0, 0.748707, 0.385344, 190.170941)" fill="none" stroke-linejoin="miter" d="M 0.00183587 0.00124788 L 323.997963 0.00124788 L 323.997963 324.002592 L 0.00183587 324.002592 Z M 0.00183587 0.00124788 " stroke="#ffffff" stroke-width="8" stroke-opacity="1" stroke-miterlimit="4"/></g><g clip-path="url(#83817fa628)"><g transform="matrix(1, 0, 0, 1, 186, 138)"><g clip-path="url(#36da035b2f)"><g clip-path="url(#e147389f3a)"><path fill="#2fc5f1" d="M 0.214844 0.464844 L 242.796875 0.464844 L 242.796875 243.046875 L 0.214844 243.046875 Z M 0.214844 0.464844 " fill-opacity="1" fill-rule="nonzero"/></g></g></g><path stroke-linecap="butt" transform="matrix(0.748707, 0, 0, 0.748707, 186.215016, 138.46523)" fill="none" stroke-linejoin="miter" d="M -0.000230295 -0.000516073 L 324.001114 -0.000516073 L 324.001114 324.000828 L -0.000230295 324.000828 Z M -0.000230295 -0.000516073 " stroke="#ffffff" stroke-width="8" stroke-opacity="1" stroke-miterlimit="4"/></g><g clip-path="url(#08a865b81e)"><g transform="matrix(1, 0, 0, 1, 428, 17)"><g clip-path="url(#7c5c2f4472)"><g clip-path="url(#533d5afbe4)"><path fill="#2fc5f1" d="M 0.796875 0.171875 L 243.378906 0.171875 L 243.378906 242.753906 L 0.796875 242.753906 Z M 0.796875 0.171875 " fill-opacity="1" fill-rule="nonzero"/></g></g></g><path stroke-linecap="butt" transform="matrix(0.748707, 0, 0, 0.748707, 428.79606, 17.17098)" fill="none" stroke-linejoin="miter" d="M 0.00108848 0.00119476 L 324.002433 0.00119476 L 324.002433 324.002539 L 0.00108848 324.002539 Z M 0.00108848 0.00119476 " stroke="#ffffff" stroke-width="8" stroke-opacity="1" stroke-miterlimit="4"/></g><g clip-path="url(#1f75828243)"><g transform="matrix(1, 0, 0, 1, 374, 178)"><g clip-path="url(#6f508d4bcf)"><g clip-path="url(#ffaf5bf8c0)"><path fill="#2fc5f1" d="M 0.121094 0.882812 L 242.703125 0.882812 L 242.703125 243.464844 L 0.121094 243.464844 Z M 0.121094 0.882812 " fill-opacity="1" fill-rule="nonzero"/></g></g></g><path stroke-linecap="butt" transform="matrix(0.748707, 0, 0, 0.748707, 374.120508, 178.884169)" fill="none" stroke-linejoin="miter" d="M 0.000781733 -0.00181195 L 324.002126 -0.00181195 L 324.002126 323.999532 L 0.000781733 323.999532 Z M 0.000781733 -0.00181195 " stroke="#ffffff" stroke-width="8" stroke-opacity="1" stroke-miterlimit="4"/></g><g clip-path="url(#b8fc3d2480)"><g transform="matrix(1, 0, 0, 1, 637, -0.00000000000002495)"><g clip-path="url(#f15eda7057)"><g clip-path="url(#24deb03920)"><path fill="#2fc5f1" d="M 0.222656 0 L 242.804688 0 L 242.804688 242.582031 L 0.222656 242.582031 Z M 0.222656 0 " fill-opacity="1" fill-rule="nonzero"/></g></g></g><path stroke-linecap="butt" transform="matrix(0.748707, 0, 0, 0.748707, 637.223306, 0.00000998276)" fill="none" stroke-linejoin="miter" d="M -0.000867386 -0.0000133333 L 324.000477 -0.0000133333 L 324.000477 324.001331 L -0.000867386 324.001331 Z M -0.000867386 -0.0000133333 " stroke="#ffffff" stroke-width="8" stroke-opacity="1" stroke-miterlimit="4"/></g><g clip-path="url(#ade52525ea)"><g transform="matrix(1, 0, 0, 1, 581, 150)"><g clip-path="url(#34fcc6dc5c)"><g clip-path="url(#f3f006b420)"><path fill="#2fc5f1" d="M 0.585938 0.109375 L 243.164062 0.109375 L 243.164062 242.6875 L 0.585938 242.6875 Z M 0.585938 0.109375 " fill-opacity="1" fill-rule="nonzero"/></g></g></g><path stroke-linecap="butt" transform="matrix(0.748707, 0, 0, 0.748707, 581.584251, 150.108367)" fill="none" stroke-linejoin="miter" d="M 0.00225255 0.00134629 L 323.99838 0.00134629 L 323.99838 323.997473 L 0.00225255 323.997473 Z M 0.00225255 0.00134629 " stroke="#ffffff" stroke-width="8" stroke-opacity="1" stroke-miterlimit="4"/></g></svg>